<?xml version="1.0" standalone="no"?>
<!DOCTYPE svg PUBLIC "-//W3C//DTD SVG 20010904//EN"
 "http://www.w3.org/TR/2001/REC-SVG-20010904/DTD/svg10.dtd">
<svg version="1.0" xmlns="http://www.w3.org/2000/svg"
 width="1236.000000pt" height="1236.000000pt" viewBox="0 0 1236.000000 1236.000000"
 preserveAspectRatio="xMidYMid meet">
<metadata>
Created by potrace 1.14, written by Peter Selinger 2001-2017
</metadata>
<g transform="translate(0.000000,1236.000000) scale(0.100000,-0.100000)"
fill="#000000" stroke="none">
<path d="M2100 11329 c-301 -59 -501 -162 -705 -364 -191 -187 -304 -405 -364
-703 -14 -69 -14 -335 0 -404 61 -299 165 -500 368 -712 221 -229 447 -353
755 -414 69 -14 343 -15 402 -2 27 6 72 15 99 21 109 23 273 91 370 151 325
205 533 511 600 883 17 95 20 341 4 417 -64 313 -169 509 -393 734 -224 224
-434 337 -721 389 -88 16 -341 18 -415 4z"/>
<path d="M5030 11330 c-14 -4 -45 -13 -70 -21 -201 -58 -373 -211 -464 -411
-62 -136 -61 -129 -61 -848 l0 -655 24 -75 c45 -144 115 -254 234 -367 112
-107 214 -170 327 -202 25 -7 58 -17 74 -22 16 -5 1227 -9 2805 -9 2706 0
2778 1 2852 20 281 70 489 284 558 573 8 33 11 243 11 685 0 598 -1 642 -20
714 -36 143 -113 273 -231 388 -124 121 -254 195 -401 229 -56 13 -5597 14
-5638 1z"/>
<path d="M1595 8125 c-63 -16 -125 -41 -194 -78 -72 -39 -83 -48 -176 -143
-99 -100 -153 -199 -194 -360 -16 -60 -15 -1947 0 -2011 37 -156 110 -282 235
-407 125 -125 251 -198 407 -235 74 -17 3442 -15 3517 3 252 60 453 239 544
483 46 123 46 136 45 1108 0 1008 1 985 -61 1132 -44 108 -100 186 -203 288
-123 121 -235 185 -385 221 -79 19 -3460 18 -3535 -1z"/>
<path d="M6800 8131 c-94 -29 -187 -116 -215 -202 -26 -77 -22 -166 10 -238
31 -69 142 -183 215 -222 l45 -24 2102 -3 2102 -2 56 21 c77 29 155 107 185
186 29 77 25 176 -9 248 -37 76 -164 197 -235 224 l-57 21 -2087 -1 c-1148 0
-2098 -4 -2112 -8z"/>
<path d="M6800 6851 c-94 -29 -187 -116 -216 -203 -22 -67 -22 -150 1 -217 22
-67 138 -193 217 -237 l53 -29 2102 -3 2102 -2 56 21 c77 29 155 107 185 186
29 77 25 176 -9 248 -37 76 -164 197 -235 224 l-57 21 -2087 -1 c-1148 0
-2098 -4 -2112 -8z"/>
<path d="M6800 5571 c-94 -29 -187 -116 -216 -203 -22 -67 -22 -150 1 -218 22
-66 138 -192 217 -236 l53 -29 2102 -3 2102 -2 56 21 c77 29 155 107 185 186
29 77 25 176 -9 248 -37 76 -164 197 -235 224 l-57 21 -2087 -1 c-1148 0
-2098 -4 -2112 -8z"/>
<path d="M1610 4289 c-70 -18 -107 -32 -190 -73 -70 -34 -102 -58 -180 -136
-115 -115 -165 -205 -209 -376 -16 -60 -15 -1947 0 -2011 37 -156 110 -282
235 -407 125 -125 251 -198 407 -235 74 -17 3442 -15 3517 3 192 46 363 166
463 324 67 105 87 154 112 276 23 107 22 1866 0 1974 -36 170 -109 298 -250
437 -97 95 -164 141 -267 182 -134 55 -43 52 -1888 52 -988 -1 -1730 -5 -1750
-10z"/>
<path d="M6800 4291 c-94 -29 -187 -116 -216 -203 -25 -77 -21 -165 11 -237
31 -69 142 -183 215 -222 l45 -24 2115 0 2115 0 47 22 c60 28 134 101 161 161
32 70 31 199 -2 267 -37 76 -164 197 -235 224 l-57 21 -2087 -1 c-1148 0
-2098 -4 -2112 -8z"/>
<path d="M6800 3011 c-93 -29 -187 -116 -215 -201 -22 -65 -21 -160 2 -224 23
-64 139 -190 215 -232 l53 -29 2115 0 2115 0 47 22 c60 28 134 101 161 161 32
70 31 199 -2 267 -37 76 -164 197 -235 224 l-57 21 -2087 -1 c-1148 0 -2098
-4 -2112 -8z"/>
<path d="M6800 1731 c-94 -29 -187 -116 -216 -203 -25 -77 -21 -165 12 -238
37 -83 158 -199 238 -229 l57 -21 2097 2 2097 3 47 22 c60 28 134 101 161 161
32 70 31 199 -2 267 -37 76 -164 197 -235 224 l-57 21 -2087 -1 c-1148 0
-2098 -4 -2112 -8z"/>
</g>
</svg>
